<svg xmlns="http://www.w3.org/2000/svg" viewBox="0 0 64 64" fill="none">
  <defs>
    <linearGradient id="tl" x1="6" y1="4" x2="58" y2="60" gradientUnits="userSpaceOnUse">
      <stop offset="0" stop-color="#0052cc"/>
      <stop offset="0.55" stop-color="#1f7ac0"/>
      <stop offset="1" stop-color="#22a45a"/>
    </linearGradient>
  </defs>
  <!-- shield -->
  <path d="M32 3.5 L56 11.5 V30.5 C56 46.5 45.5 56.5 32 60.5 C18.5 56.5 8 46.5 8 30.5 V11.5 Z" fill="url(#tl)"/>
  <!-- sparkle -->
  <path d="M47 13 l1.4 3.1 3.1 1.4 -3.1 1.4 -1.4 3.1 -1.4 -3.1 -3.1 -1.4 3.1 -1.4 Z" fill="#ffffff" opacity="0.9"/>
  <!-- location pin (white) -->
  <path d="M32 17 C25.9 17 21 21.9 21 28 C21 36 32 47 32 47 C32 47 43 36 43 28 C43 21.9 38.1 17 32 17 Z" fill="#ffffff"/>
  <!-- check inside pin head -->
  <path d="M27.2 27.8 l3.4 3.4 6.2 -7" fill="none" stroke="url(#tl)" stroke-width="3.4" stroke-linecap="round" stroke-linejoin="round"/>
</svg>
